<?xml version="1.0" encoding="utf-8"?>
<!-- Generated by IcoMoon.io -->
<!DOCTYPE svg PUBLIC "-//W3C//DTD SVG 1.1//EN" "http://www.w3.org/Graphics/SVG/1.1/DTD/svg11.dtd">
<svg version="1.1" xmlns="http://www.w3.org/2000/svg" xmlns:xlink="http://www.w3.org/1999/xlink" width="678" height="108" viewBox="0 0 678 108">
<svg id="Icon-Shareable" width="20" height="20" viewBox="0 0 20 20" x="0" y="0">
<path fill="#444444" d="M6.8 10c0 1.768 1.433 3.201 3.2 3.201 1.768 0 3.199-1.433 3.199-3.201s-1.431-3.2-3.199-3.2-3.2 1.433-3.2 3.2zM4.529 8.8c0.549-2.516 2.789-4.4 5.471-4.4 1.546 0 2.945 0.627 3.959 1.64 0.469 0.469 1.229 0.469 1.697 0 0.469-0.469 0.469-1.229 0-1.697-1.447-1.447-3.447-2.343-5.656-2.343-3.582 0-6.614 2.354-7.633 5.601h-2.367v2.399h3.199c0.999 0 1.245-0.813 1.33-1.2zM16.8 10c-0.999 0-1.245 0.814-1.329 1.199-0.549 2.516-2.789 4.4-5.471 4.4-1.547 0-2.946-0.627-3.959-1.641-0.469-0.469-1.229-0.469-1.698 0s-0.468 1.229 0 1.697c1.448 1.449 3.448 2.345 5.657 2.345 3.582 0 6.613-2.356 7.633-5.6h2.367v-2.4h-3.2z"></path>
</svg>
<svg id="Icon-Vimeo" width="28" height="28" viewBox="0 0 28 28" x="0" y="36">
<path fill="#444444" d="M26.703 8.094q-0.156 3.687-5.187 10.172-5.203 6.734-8.781 6.734-2.219 0-3.75-4.109-0.688-2.5-2.063-7.531-1.125-4.094-2.453-4.094-0.281 0-1.984 1.188l-1.203-1.531q0.375-0.328 1.687-1.508t2.031-1.805q2.438-2.156 3.766-2.281 1.484-0.141 2.391 0.867t1.266 3.18q0.688 4.484 1.031 5.828 0.859 3.891 1.875 3.891 0.797 0 2.406-2.516 1.578-2.516 1.703-3.844 0.203-2.172-1.703-2.172-0.891 0-1.891 0.406 1.875-6.141 7.172-5.969 3.922 0.125 3.687 5.094z"></path>
</svg>
<svg id="Icon-Check" width="28" height="28" viewBox="0 0 28 28" x="44" y="36">
<path fill="#444444" d="M26.109 8.844q0 0.625-0.438 1.062l-13.438 13.438q-0.438 0.438-1.062 0.438t-1.062-0.438l-7.781-7.781q-0.438-0.438-0.438-1.062t0.438-1.062l2.125-2.125q0.438-0.438 1.062-0.438t1.062 0.438l4.594 4.609 10.25-10.266q0.438-0.438 1.062-0.438t1.062 0.438l2.125 2.125q0.438 0.437 0.438 1.062z"></path>
</svg>
<svg id="Icon-Reddit" width="28" height="28" viewBox="0 0 28 28" x="88" y="36">
<path fill="#444444" d="M28 13.219q0 0.906-0.461 1.648t-1.242 1.133q0.187 0.719 0.187 1.5 0 2.422-1.664 4.484t-4.539 3.258-6.25 1.195-6.242-1.195-4.531-3.258-1.664-4.484q0-0.734 0.172-1.469-0.797-0.391-1.281-1.148t-0.484-1.664q0-1.281 0.906-2.195t2.203-0.914q1.328 0 2.266 0.984 3.406-2.375 8.047-2.531l1.813-8.141q0.047-0.203 0.234-0.328t0.406-0.078l5.766 1.266q0.281-0.578 0.844-0.93t1.234-0.352q0.969 0 1.656 0.68t0.688 1.648-0.688 1.656-1.656 0.688-1.648-0.68-0.68-1.648l-5.219-1.156-1.625 7.375q4.688 0.141 8.109 2.5 0.906-0.953 2.234-0.953 1.297 0 2.203 0.914t0.906 2.195zM6.531 16.328q0 0.969 0.68 1.656t1.648 0.688 1.656-0.688 0.688-1.656-0.688-1.648-1.656-0.68q-0.953 0-1.641 0.688t-0.688 1.641zM19.187 21.875q0.172-0.172 0.172-0.406t-0.172-0.406q-0.156-0.156-0.391-0.156t-0.406 0.156q-0.641 0.656-1.891 0.969t-2.5 0.313-2.5-0.313-1.891-0.969q-0.172-0.156-0.406-0.156t-0.391 0.156q-0.172 0.156-0.172 0.398t0.172 0.414q0.672 0.672 1.852 1.062t1.914 0.461 1.422 0.070 1.422-0.070 1.914-0.461 1.852-1.062zM19.141 18.672q0.969 0 1.648-0.688t0.68-1.656q0-0.953-0.688-1.641t-1.641-0.688q-0.969 0-1.656 0.68t-0.688 1.648 0.688 1.656 1.656 0.688z"></path>
</svg>
<svg id="Icon-WordPress" width="28" height="28" viewBox="0 0 28 28" x="132" y="36">
<path fill="#444444" d="M1.984 14q0-2.547 1.047-4.891l5.734 15.703q-3.063-1.484-4.922-4.391t-1.859-6.422zM22.109 13.391q0 0.297-0.039 0.602t-0.156 0.773-0.18 0.688-0.273 0.922-0.273 0.906l-1.188 4-4.344-12.906q0.719-0.047 1.375-0.125 0.297-0.031 0.406-0.289t-0.039-0.484-0.445-0.211l-3.203 0.156q-1.172-0.016-3.156-0.156-0.187-0.016-0.32 0.078t-0.18 0.234-0.023 0.289 0.141 0.258 0.305 0.125l1.25 0.125 1.875 5.125-2.625 7.875-4.375-13q0.719-0.047 1.375-0.125 0.297-0.031 0.406-0.289t-0.039-0.484-0.445-0.211l-3.203 0.156q-0.109 0-0.359-0.008t-0.406-0.008q1.641-2.5 4.289-3.961t5.742-1.461q2.297 0 4.383 0.828t3.727 2.328h-0.156q-0.859 0-1.437 0.633t-0.578 1.492q0 0.187 0.031 0.375t0.063 0.336 0.125 0.359 0.141 0.328 0.187 0.352 0.195 0.328 0.227 0.375 0.219 0.359q0.984 1.672 0.984 3.313zM14.203 15.047l3.703 10.109q0.016 0.094 0.078 0.172-1.969 0.688-3.984 0.688-1.75 0-3.391-0.5zM24.531 8.234q1.484 2.719 1.484 5.766 0 3.266-1.625 6.023t-4.359 4.352l3.672-10.594q0.922-2.641 0.922-4.312 0-0.656-0.094-1.234zM14 0q2.844 0 5.437 1.109t4.469 2.984 2.984 4.469 1.109 5.437-1.109 5.437-2.984 4.469-4.469 2.984-5.437 1.109-5.437-1.109-4.469-2.984-2.984-4.469-1.109-5.437 1.109-5.437 2.984-4.469 4.469-2.984 5.437-1.109zM14 27.359q2.703 0 5.18-1.062t4.266-2.852 2.852-4.266 1.062-5.18-1.062-5.18-2.852-4.266-4.266-2.852-5.18-1.062-5.18 1.062-4.266 2.852-2.852 4.266-1.062 5.18 1.062 5.18 2.852 4.266 4.266 2.852 5.18 1.062z"></path>
</svg>
<svg id="Icon-Pocket" width="27" height="28" viewBox="0 0 27 28" x="176" y="36">
<path fill="#444444" d="M24.453 2q1.016 0 1.719 0.711t0.703 1.727v8.109q0 2.75-1.062 5.25t-2.852 4.297-4.281 2.852-5.227 1.055q-2.75 0-5.242-1.055t-4.289-2.852-2.859-4.297-1.062-5.25v-8.109q0-1 0.719-1.719t1.719-0.719h22.016zM13.453 18.625q0.734 0 1.281-0.516l6.312-6.062q0.578-0.547 0.578-1.328 0-0.766-0.539-1.305t-1.305-0.539q-0.734 0-1.281 0.516l-5.047 4.844-5.047-4.844q-0.547-0.516-1.266-0.516-0.766 0-1.305 0.539t-0.539 1.305q0 0.797 0.562 1.328l6.328 6.062q0.516 0.516 1.266 0.516z"></path>
</svg>
<svg id="Icon-StumbleUpon" width="30" height="28" viewBox="0 0 30 28" x="220" y="36">
<path fill="#444444" d="M16.594 11.125v-1.844q0-0.656-0.469-1.125t-1.125-0.469-1.125 0.469-0.469 1.125v9.562q0 2.734-1.969 4.672t-4.734 1.937q-2.781 0-4.742-1.961t-1.961-4.742v-4.156h5.125v4.094q0 0.672 0.469 1.133t1.125 0.461 1.125-0.461 0.469-1.133v-9.688q0-2.672 1.977-4.562t4.711-1.891q2.75 0 4.719 1.906t1.969 4.594v2.125l-3.047 0.906zM24.875 14.594h5.125v4.156q0 2.781-1.961 4.742t-4.742 1.961q-2.766 0-4.734-1.945t-1.969-4.695v-4.188l2.047 0.953 3.047-0.906v4.219q0 0.656 0.469 1.117t1.125 0.461 1.125-0.461 0.469-1.117v-4.297z"></path>
</svg>
<svg id="Icon-LinkedIn" width="24" height="28" viewBox="0 0 24 28" x="308" y="36">
<path fill="#444444" d="M5.453 9.766v15.484h-5.156v-15.484h5.156zM5.781 4.984q0.016 1.141-0.789 1.906t-2.117 0.766h-0.031q-1.281 0-2.063-0.766t-0.781-1.906q0-1.156 0.805-1.914t2.102-0.758 2.078 0.758 0.797 1.914zM24 16.375v8.875h-5.141v-8.281q0-1.641-0.633-2.57t-1.977-0.93q-0.984 0-1.648 0.539t-0.992 1.336q-0.172 0.469-0.172 1.266v8.641h-5.141q0.031-6.234 0.031-10.109t-0.016-4.625l-0.016-0.75h5.141v2.25h-0.031q0.313-0.5 0.641-0.875t0.883-0.812 1.359-0.68 1.789-0.242q2.672 0 4.297 1.773t1.625 5.195z"></path>
</svg>
<svg id="Icon-Tumblr" width="17" height="28" viewBox="0 0 17 28" x="352" y="36">
<path fill="#444444" d="M14.75 20.766l1.25 3.703q-0.359 0.547-1.734 1.031t-2.766 0.5q-1.625 0.031-2.977-0.406t-2.227-1.156-1.484-1.656-0.867-1.875-0.258-1.844v-8.5h-2.625v-3.359q1.125-0.406 2.016-1.086t1.422-1.406 0.906-1.594 0.531-1.547 0.234-1.383q0.016-0.078 0.070-0.133t0.117-0.055h3.813v6.625h5.203v3.937h-5.219v8.094q0 0.469 0.102 0.875t0.352 0.82 0.773 0.648 1.273 0.219q1.219-0.031 2.094-0.453z"></path>
</svg>
<svg id="Icon-Pinterest" width="20" height="28" viewBox="0 0 20 28" x="396" y="36">
<path fill="#444444" d="M0 9.328q0-1.687 0.586-3.18t1.617-2.602 2.375-1.922 2.891-1.219 3.156-0.406q2.469 0 4.594 1.039t3.453 3.023 1.328 4.484q0 1.5-0.297 2.938t-0.938 2.766-1.563 2.336-2.266 1.609-2.953 0.602q-1.062 0-2.109-0.5t-1.5-1.375q-0.156 0.609-0.438 1.758t-0.367 1.484-0.32 1.109-0.406 1.109-0.5 0.977-0.719 1.211-0.969 1.352l-0.219 0.078-0.141-0.156q-0.234-2.453-0.234-2.938 0-1.437 0.336-3.227t1.039-4.492 0.812-3.172q-0.5-1.016-0.5-2.641 0-1.297 0.812-2.438t2.063-1.141q0.953 0 1.484 0.633t0.531 1.602q0 1.031-0.688 2.984t-0.688 2.922q0 0.984 0.703 1.633t1.703 0.648q0.859 0 1.594-0.391t1.227-1.062 0.875-1.484 0.594-1.727 0.313-1.734 0.102-1.555q0-2.703-1.711-4.211t-4.461-1.508q-3.125 0-5.219 2.023t-2.094 5.133q0 0.688 0.195 1.328t0.422 1.016 0.422 0.711 0.195 0.477q0 0.438-0.234 1.141t-0.578 0.703q-0.031 0-0.266-0.047-0.797-0.234-1.414-0.875t-0.953-1.477-0.508-1.687-0.172-1.664z"></path>
</svg>
<svg id="Icon-Share" width="24" height="28" viewBox="0 0 24 28" x="440" y="36">
<path fill="#444444" d="M19 16q2.078 0 3.539 1.461t1.461 3.539-1.461 3.539-3.539 1.461-3.539-1.461-1.461-3.539q0-0.187 0.031-0.531l-5.625-2.812q-1.437 1.344-3.406 1.344-2.078 0-3.539-1.461t-1.461-3.539 1.461-3.539 3.539-1.461q1.969 0 3.406 1.344l5.625-2.812q-0.031-0.344-0.031-0.531 0-2.078 1.461-3.539t3.539-1.461 3.539 1.461 1.461 3.539-1.461 3.539-3.539 1.461q-1.969 0-3.406-1.344l-5.625 2.812q0.031 0.344 0.031 0.531t-0.031 0.531l5.625 2.812q1.437-1.344 3.406-1.344z"></path>
</svg>
<svg id="Icon-GooglePlus" width="36" height="28" viewBox="0 0 36 28" x="484" y="36">
<path fill="#444444" d="M22.453 14.266q0 3.25-1.359 5.789t-3.875 3.969-5.766 1.43q-2.328 0-4.453-0.906t-3.656-2.438-2.438-3.656-0.906-4.453 0.906-4.453 2.438-3.656 3.656-2.438 4.453-0.906q4.469 0 7.672 3l-3.109 2.984q-1.828-1.766-4.562-1.766-1.922 0-3.555 0.969t-2.586 2.633-0.953 3.633 0.953 3.633 2.586 2.633 3.555 0.969q1.297 0 2.383-0.359t1.789-0.898 1.227-1.227 0.766-1.297 0.336-1.156h-6.5v-3.938h10.813q0.187 0.984 0.187 1.906zM36 12.359v3.281h-3.266v3.266h-3.281v-3.266h-3.266v-3.281h3.266v-3.266h3.281v3.266h3.266z"></path>
</svg>
<svg id="Icon-Print" width="26" height="28" viewBox="0 0 26 28" x="572" y="36">
<path fill="#444444" d="M6 24h14v-4h-14v4zM6 14h14v-6h-2.5q-0.625 0-1.062-0.438t-0.438-1.062v-2.5h-10v10zM24 15q0-0.406-0.297-0.703t-0.703-0.297-0.703 0.297-0.297 0.703 0.297 0.703 0.703 0.297 0.703-0.297 0.297-0.703zM26 15v6.5q0 0.203-0.148 0.352t-0.352 0.148h-3.5v2.5q0 0.625-0.438 1.062t-1.062 0.438h-15q-0.625 0-1.062-0.438t-0.438-1.062v-2.5h-3.5q-0.203 0-0.352-0.148t-0.148-0.352v-6.5q0-1.234 0.883-2.117t2.117-0.883h1v-8.5q0-0.625 0.438-1.062t1.062-0.438h10.5q0.625 0 1.375 0.313t1.188 0.75l2.375 2.375q0.438 0.438 0.75 1.188t0.313 1.375v4h1q1.234 0 2.117 0.883t0.883 2.117z"></path>
</svg>
<svg id="Icon-Home" width="26" height="28" viewBox="0 0 26 28" x="616" y="36">
<path fill="#444444" d="M22 15.5v7.5q0 0.406-0.297 0.703t-0.703 0.297h-6v-6h-4v6h-6q-0.406 0-0.703-0.297t-0.297-0.703v-7.5q0-0.016 0.008-0.047t0.008-0.047l8.984-7.406 8.984 7.406q0.016 0.031 0.016 0.094zM25.484 14.422l-0.969 1.156q-0.125 0.141-0.328 0.172h-0.047q-0.203 0-0.328-0.109l-10.813-9.016-10.813 9.016q-0.187 0.125-0.375 0.109-0.203-0.031-0.328-0.172l-0.969-1.156q-0.125-0.156-0.109-0.367t0.172-0.336l11.234-9.359q0.5-0.406 1.188-0.406t1.188 0.406l3.813 3.187v-3.047q0-0.219 0.141-0.359t0.359-0.141h3q0.219 0 0.359 0.141t0.141 0.359v6.375l3.422 2.844q0.156 0.125 0.172 0.336t-0.109 0.367z"></path>
</svg>
<svg id="Icon-Angle-Down" width="18" height="28" viewBox="0 0 18 28" x="660" y="36">
<path fill="#444444" d="M16.797 11.5q0 0.203-0.156 0.359l-7.281 7.281q-0.156 0.156-0.359 0.156t-0.359-0.156l-7.281-7.281q-0.156-0.156-0.156-0.359t0.156-0.359l0.781-0.781q0.156-0.156 0.359-0.156t0.359 0.156l6.141 6.141 6.141-6.141q0.156-0.156 0.359-0.156t0.359 0.156l0.781 0.781q0.156 0.156 0.156 0.359z"></path>
</svg>
<svg id="Icon-Envelope" width="28" height="28" viewBox="0 0 28 28" x="0" y="80">
<path fill="#444444" d="M26 23.5v-12q-0.5 0.562-1.078 1.031-4.188 3.219-6.656 5.281-0.797 0.672-1.297 1.047t-1.352 0.758-1.602 0.383h-0.031q-0.75 0-1.602-0.383t-1.352-0.758-1.297-1.047q-2.469-2.063-6.656-5.281-0.578-0.469-1.078-1.031v12q0 0.203 0.148 0.352t0.352 0.148h23q0.203 0 0.352-0.148t0.148-0.352zM26 7.078v-0.383t-0.008-0.203-0.047-0.195-0.086-0.141-0.141-0.117-0.219-0.039h-23q-0.203 0-0.352 0.148t-0.148 0.352q0 2.625 2.297 4.438 3.016 2.375 6.266 4.953 0.094 0.078 0.547 0.461t0.719 0.586 0.695 0.492 0.789 0.43 0.672 0.141h0.031q0.313 0 0.672-0.141t0.789-0.43 0.695-0.492 0.719-0.586 0.547-0.461q3.25-2.578 6.266-4.953 0.844-0.672 1.57-1.805t0.727-2.055zM28 6.5v17q0 1.031-0.734 1.766t-1.766 0.734h-23q-1.031 0-1.766-0.734t-0.734-1.766v-17q0-1.031 0.734-1.766t1.766-0.734h23q1.031 0 1.766 0.734t0.734 1.766z"></path>
</svg>
<svg id="Icon-Feed" width="22" height="28" viewBox="0 0 22 28" x="44" y="80">
<path fill="#444444" d="M6 21q0 1.25-0.875 2.125t-2.125 0.875-2.125-0.875-0.875-2.125 0.875-2.125 2.125-0.875 2.125 0.875 0.875 2.125zM14 22.922q0.031 0.438-0.266 0.75-0.281 0.328-0.734 0.328h-2.109q-0.391 0-0.672-0.258t-0.313-0.648q-0.344-3.578-2.883-6.117t-6.117-2.883q-0.391-0.031-0.648-0.313t-0.258-0.672v-2.109q0-0.453 0.328-0.734 0.266-0.266 0.672-0.266h0.078q2.5 0.203 4.781 1.258t4.047 2.836q1.781 1.766 2.836 4.047t1.258 4.781zM22 22.953q0.031 0.422-0.281 0.734-0.281 0.313-0.719 0.313h-2.234q-0.406 0-0.695-0.273t-0.305-0.664q-0.187-3.359-1.578-6.383t-3.617-5.25-5.25-3.617-6.383-1.594q-0.391-0.016-0.664-0.305t-0.273-0.68v-2.234q0-0.438 0.313-0.719 0.281-0.281 0.688-0.281h0.047q4.094 0.203 7.836 1.875t6.648 4.594q2.922 2.906 4.594 6.648t1.875 7.836z"></path>
</svg>
<svg id="Icon-Instagram" width="24" height="28" viewBox="0 0 24 28" x="88" y="80">
<path fill="#444444" d="M21.281 22.281v-10.125h-2.109q0.313 0.984 0.313 2.047 0 1.969-1 3.633t-2.719 2.633-3.75 0.969q-3.078 0-5.266-2.117t-2.188-5.117q0-1.062 0.313-2.047h-2.203v10.125q0 0.406 0.273 0.68t0.68 0.273h16.703q0.391 0 0.672-0.273t0.281-0.68zM16.844 13.953q0-1.937-1.414-3.305t-3.414-1.367q-1.984 0-3.398 1.367t-1.414 3.305 1.414 3.305 3.398 1.367q2 0 3.414-1.367t1.414-3.305zM21.281 8.328v-2.578q0-0.438-0.313-0.758t-0.766-0.32h-2.719q-0.453 0-0.766 0.32t-0.313 0.758v2.578q0 0.453 0.313 0.766t0.766 0.313h2.719q0.453 0 0.766-0.313t0.313-0.766zM24 5.078v17.844q0 1.266-0.906 2.172t-2.172 0.906h-17.844q-1.266 0-2.172-0.906t-0.906-2.172v-17.844q0-1.266 0.906-2.172t2.172-0.906h17.844q1.266 0 2.172 0.906t0.906 2.172z"></path>
</svg>
<svg id="Icon-Youtube" width="24" height="28" viewBox="0 0 24 28" x="132" y="80">
<path fill="#444444" d="M15.172 19.437v3.297q0 1.047-0.609 1.047-0.359 0-0.703-0.344v-4.703q0.344-0.344 0.703-0.344 0.609 0 0.609 1.047zM20.453 19.453v0.719h-1.406v-0.719q0-1.062 0.703-1.062t0.703 1.062zM5.359 16.047h1.672v-1.469h-4.875v1.469h1.641v8.891h1.563v-8.891zM9.859 24.938h1.391v-7.719h-1.391v5.906q-0.469 0.656-0.891 0.656-0.281 0-0.328-0.328-0.016-0.047-0.016-0.547v-5.688h-1.391v6.109q0 0.766 0.125 1.141 0.187 0.578 0.906 0.578 0.75 0 1.594-0.953v0.844zM16.562 22.625v-3.078q0-1.141-0.141-1.547-0.266-0.875-1.109-0.875-0.781 0-1.453 0.844v-3.391h-1.391v10.359h1.391v-0.75q0.703 0.859 1.453 0.859 0.844 0 1.109-0.859 0.141-0.422 0.141-1.563zM21.844 22.469v-0.203h-1.422q0 0.797-0.031 0.953-0.109 0.562-0.625 0.562-0.719 0-0.719-1.078v-1.359h2.797v-1.609q0-1.234-0.422-1.813-0.609-0.797-1.656-0.797-1.062 0-1.672 0.797-0.438 0.578-0.438 1.813v2.703q0 1.234 0.453 1.813 0.609 0.797 1.687 0.797 1.125 0 1.687-0.828 0.281-0.422 0.328-0.844 0.031-0.141 0.031-0.906zM12.344 8.203v-3.281q0-1.078-0.672-1.078t-0.672 1.078v3.281q0 1.094 0.672 1.094t0.672-1.094zM23.578 19.938q0 3.656-0.406 5.469-0.219 0.922-0.906 1.547t-1.594 0.719q-2.875 0.328-8.672 0.328t-8.672-0.328q-0.906-0.094-1.602-0.719t-0.898-1.547q-0.406-1.75-0.406-5.469 0-3.656 0.406-5.469 0.219-0.922 0.906-1.547t1.609-0.734q2.859-0.313 8.656-0.313t8.672 0.313q0.906 0.109 1.602 0.734t0.898 1.547q0.406 1.75 0.406 5.469zM7.984 0h1.594l-1.891 6.234v4.234h-1.563v-4.234q-0.219-1.156-0.953-3.313-0.578-1.609-1.016-2.922h1.656l1.109 4.109zM13.766 5.203v2.734q0 1.266-0.438 1.844-0.578 0.797-1.656 0.797-1.047 0-1.641-0.797-0.438-0.594-0.438-1.844v-2.734q0-1.25 0.438-1.828 0.594-0.797 1.641-0.797 1.078 0 1.656 0.797 0.438 0.578 0.438 1.828zM19 2.672v7.797h-1.422v-0.859q-0.828 0.969-1.609 0.969-0.719 0-0.922-0.578-0.125-0.375-0.125-1.172v-6.156h1.422v5.734q0 0.516 0.016 0.547 0.047 0.344 0.328 0.344 0.422 0 0.891-0.672v-5.953h1.422z"></path>
</svg>
<svg id="Icon-Twitter" width="26" height="28" viewBox="0 0 26 28" x="176" y="80">
<path fill="#444444" d="M25.312 6.375q-1.047 1.531-2.531 2.609 0.016 0.219 0.016 0.656 0 2.031-0.594 4.055t-1.805 3.883-2.883 3.289-4.031 2.281-5.047 0.852q-4.234 0-7.75-2.266 0.547 0.063 1.219 0.063 3.516 0 6.266-2.156-1.641-0.031-2.938-1.008t-1.781-2.492q0.516 0.078 0.953 0.078 0.672 0 1.328-0.172-1.75-0.359-2.898-1.742t-1.148-3.211v-0.063q1.062 0.594 2.281 0.641-1.031-0.688-1.641-1.797t-0.609-2.406q0-1.375 0.688-2.547 1.891 2.328 4.602 3.727t5.805 1.555q-0.125-0.594-0.125-1.156 0-2.094 1.477-3.57t3.57-1.477q2.188 0 3.687 1.594 1.703-0.328 3.203-1.219-0.578 1.797-2.219 2.781 1.453-0.156 2.906-0.781z"></path>
</svg>
<svg id="Icon-Facebook" width="16" height="28" viewBox="0 0 16 28" x="220" y="80">
<path fill="#444444" d="M14.984 0.187v4.125h-2.453q-1.344 0-1.813 0.562t-0.469 1.687v2.953h4.578l-0.609 4.625h-3.969v11.859h-4.781v-11.859h-3.984v-4.625h3.984v-3.406q0-2.906 1.625-4.508t4.328-1.602q2.297 0 3.563 0.187z"></path>
</svg>
</svg>
