<?xml version="1.0" standalone="no"?>
<!DOCTYPE svg PUBLIC "-//W3C//DTD SVG 20010904//EN"
 "http://www.w3.org/TR/2001/REC-SVG-20010904/DTD/svg10.dtd">
<svg version="1.0" xmlns="http://www.w3.org/2000/svg"
 width="417.000000pt" height="417.000000pt" viewBox="0 0 417.000000 417.000000"
 preserveAspectRatio="xMidYMid meet">
<metadata>
Created by potrace 1.11, written by Peter Selinger 2001-2013
</metadata>
<g transform="translate(0.000000,417.000000) scale(0.100000,-0.100000)"
fill="#000000" stroke="none">
<path d="M1762 3851 c-172 -176 -312 -324 -312 -330 0 -6 55 -67 122 -136
l121 -126 83 88 83 88 1 -152 0 -152 -42 -11 c-503 -127 -858 -590 -858 -1120
0 -479 287 -911 718 -1079 l52 -21 0 230 0 229 -47 32 c-66 46 -162 147 -202
213 -254 422 -54 957 409 1097 81 24 224 31 330 16 l55 -8 0 118 c0 65 1 228
3 363 l2 245 88 -88 87 -87 124 130 123 131 -73 77 c-41 42 -182 188 -315 325
l-240 247 -312 -319z"/>
<path d="M2420 2872 l0 -229 49 -31 c83 -54 193 -180 239 -274 60 -123 76
-192 76 -333 1 -145 -15 -212 -81 -345 -81 -165 -235 -297 -418 -357 -68 -22
-98 -26 -200 -27 -66 0 -137 5 -157 11 l-38 11 -2 -311 -3 -312 -127 -3 -128
-3 0 -199 0 -200 125 0 125 0 0 -135 0 -135 210 0 210 0 0 135 0 135 120 0
120 0 0 200 0 200 -120 0 -120 0 0 100 0 99 43 12 c333 88 602 311 747 621
121 259 143 567 60 844 -93 308 -318 572 -603 704 -45 21 -92 41 -104 45 l-23
6 0 -229z"/>
</g>
</svg>
